<svg width="70" height="71" viewBox="0 0 70 71" fill="none" xmlns="http://www.w3.org/2000/svg">
<path d="M27.2889 43.2496L40.3532 56.827C40.8865 57.3779 41.6079 57.6872 42.3598 57.6872C43.1117 57.6872 43.8331 57.3779 44.3664 56.827C44.6332 56.552 44.8449 56.2248 44.9894 55.8644C45.1339 55.5039 45.2083 55.1173 45.2083 54.7268C45.2083 54.3363 45.1339 53.9496 44.9894 53.5892C44.8449 53.2287 44.6332 52.9016 44.3664 52.6266L31.2736 39.0787C31.0068 38.8037 30.7951 38.4766 30.6506 38.1161C30.5061 37.7556 30.4317 37.369 30.4317 36.9785C30.4317 36.588 30.5061 36.2014 30.6506 35.8409C30.7951 35.4804 31.0068 35.1533 31.2736 34.8783L44.3664 21.3304C44.9024 20.7773 45.205 20.0256 45.2076 19.2407C45.2103 18.4557 44.9128 17.7018 44.3806 17.1448C43.8485 16.5878 43.1252 16.2733 42.3699 16.2705C41.6146 16.2678 40.8892 16.5769 40.3532 17.13L27.2889 30.7074C25.6898 32.3713 24.7917 34.6268 24.7917 36.9785C24.7917 39.3302 25.6898 41.5857 27.2889 43.2496Z" fill="#933393"/>
</svg>
