<?xml version="1.0" encoding="UTF-8" standalone="no"?>
<!DOCTYPE svg PUBLIC "-//W3C//DTD SVG 1.1//EN" "http://www.w3.org/Graphics/SVG/1.1/DTD/svg11.dtd">
<svg width="100%" height="100%" viewBox="0 0 575 161" version="1.1" xmlns="http://www.w3.org/2000/svg" xmlns:xlink="http://www.w3.org/1999/xlink" xml:space="preserve" xmlns:serif="http://www.serif.com/" style="fill-rule:evenodd;clip-rule:evenodd;stroke-linejoin:round;stroke-miterlimit:2;">
    <g transform="matrix(1,0,0,1,-252.711,-110)">
        <g transform="matrix(1,0,0,1,351.176,110.199)">
            <path d="M0,27.52C-8.725,22.479 -19.367,22.423 -27.512,27.514L-27.514,27.516L-27.513,27.514L-27.514,27.515L-27.513,27.514C-27.434,27.387 -27.355,27.26 -27.279,27.132L-27.277,27.129C-27.201,27.002 -27.126,26.874 -27.052,26.745L-27.05,26.743C-26.976,26.614 -26.903,26.485 -26.831,26.355L-26.83,26.352C-26.759,26.222 -26.688,26.091 -26.619,25.96L-26.618,25.958C-26.549,25.828 -26.481,25.696 -26.414,25.563L-26.413,25.561C-26.347,25.428 -26.281,25.295 -26.218,25.164L-26.216,25.161C-26.151,25.027 -26.089,24.894 -26.027,24.76L-26.026,24.757C-25.965,24.623 -25.904,24.488 -25.845,24.353L-25.844,24.351C-25.785,24.215 -25.727,24.08 -25.67,23.944L-25.669,23.941C-25.612,23.805 -25.558,23.668 -25.503,23.532L-25.502,23.529C-25.448,23.392 -25.396,23.255 -25.344,23.118L-25.343,23.115C-25.291,22.977 -25.24,22.838 -25.19,22.7L-25.19,22.698C-25.142,22.559 -25.093,22.419 -25.047,22.28L-25.045,22.278C-24.999,22.138 -24.953,21.999 -24.909,21.858L-24.908,21.856C-24.864,21.715 -24.82,21.575 -24.779,21.433L-24.778,21.432C-24.737,21.291 -24.696,21.149 -24.657,21.007L-24.656,21.005C-24.617,20.864 -24.579,20.721 -24.542,20.579L-24.542,20.577C-24.505,20.434 -24.469,20.291 -24.435,20.148L-24.435,20.146C-24.4,20.003 -24.366,19.86 -24.335,19.716L-24.335,19.714C-24.303,19.571 -24.271,19.426 -24.242,19.282L-24.242,19.28C-24.213,19.136 -24.185,18.992 -24.158,18.846L-24.157,18.844C-24.131,18.7 -24.104,18.555 -24.08,18.41L-24.08,18.408C-24.056,18.262 -24.032,18.117 -24.01,17.971L-24.01,17.969C-23.987,17.823 -23.967,17.677 -23.948,17.531L-23.947,17.529C-23.928,17.383 -23.91,17.237 -23.893,17.089L-23.893,17.087C-23.875,16.941 -23.859,16.794 -23.845,16.647L-23.845,16.645C-23.83,16.499 -23.816,16.352 -23.805,16.205L-23.805,16.203C-23.793,16.055 -23.781,15.908 -23.772,15.76L-23.772,15.758C-23.762,15.611 -23.754,15.462 -23.747,15.315L-23.747,15.313C-23.739,15.165 -23.733,15.017 -23.729,14.869L-23.729,14.867C-23.724,14.719 -23.721,14.571 -23.718,14.422L-23.718,14.42C-23.716,14.273 -23.716,14.124 -23.716,13.975L-23.716,13.974C-23.716,13.825 -23.717,13.677 -23.72,13.528L-23.72,13.527C-23.723,13.377 -23.727,13.229 -23.731,13.081L-23.731,13.08C-23.736,12.93 -23.743,12.782 -23.751,12.632L-23.751,12.631C-23.759,12.482 -23.768,12.333 -23.777,12.184L-23.777,12.183C-23.788,12.034 -23.799,11.885 -23.812,11.737L-23.812,11.736C-23.824,11.585 -23.838,11.437 -23.854,11.288L-23.854,11.287C-23.868,11.138 -23.885,10.99 -23.902,10.84L-23.902,10.839C-23.92,10.69 -23.938,10.541 -23.959,10.393L-23.959,10.391C-23.979,10.244 -24,10.094 -24.022,9.946L-24.022,9.945C-24.045,9.796 -24.068,9.648 -24.093,9.5L-24.094,9.498C-24.118,9.35 -24.145,9.201 -24.172,9.053L-24.172,9.052C-24.199,8.904 -24.228,8.755 -24.258,8.608L-24.258,8.607C-24.287,8.458 -24.318,8.311 -24.351,8.163C-24.383,8.015 -24.417,7.867 -24.451,7.719L-24.451,7.718C-24.486,7.572 -24.522,7.423 -24.56,7.277L-24.56,7.276C-24.597,7.128 -24.635,6.982 -24.675,6.834C-24.714,6.688 -24.756,6.541 -24.798,6.395L-24.798,6.394C-24.84,6.248 -24.883,6.101 -24.928,5.956L-24.928,5.955C-24.973,5.808 -25.018,5.664 -25.065,5.518L-25.065,5.517C-25.112,5.372 -25.161,5.226 -25.21,5.082C-25.26,4.936 -25.311,4.791 -25.362,4.647L-25.362,4.646C-25.414,4.501 -25.468,4.358 -25.521,4.213C-25.576,4.07 -25.632,3.926 -25.688,3.783L-25.688,3.782C-25.745,3.639 -25.804,3.496 -25.863,3.353C-25.922,3.21 -25.982,3.068 -26.044,2.926C-26.106,2.784 -26.169,2.642 -26.233,2.5C-26.297,2.359 -26.363,2.218 -26.43,2.079L-26.43,2.078C-26.496,1.937 -26.564,1.797 -26.633,1.658L-26.633,1.657C-26.702,1.517 -26.772,1.378 -26.844,1.239C-26.916,1.1 -26.988,0.962 -27.062,0.824C-27.136,0.685 -27.211,0.547 -27.287,0.41L-27.288,0.41C-27.364,0.273 -27.441,0.136 -27.521,0C-27.384,0.079 -27.248,0.157 -27.11,0.233C-26.973,0.309 -26.835,0.384 -26.697,0.458C-26.559,0.533 -26.421,0.605 -26.281,0.677C-26.143,0.749 -26.003,0.819 -25.863,0.887C-25.723,0.957 -25.584,1.025 -25.442,1.091C-25.302,1.158 -25.161,1.223 -25.02,1.287C-24.878,1.351 -24.737,1.415 -24.595,1.476C-24.452,1.538 -24.311,1.598 -24.167,1.658C-24.024,1.717 -23.882,1.775 -23.738,1.832C-23.595,1.889 -23.451,1.945 -23.308,1.999L-23.307,1.999C-23.162,2.053 -23.019,2.106 -22.875,2.159L-22.874,2.159C-22.729,2.21 -22.585,2.261 -22.439,2.31L-22.438,2.31C-22.295,2.36 -22.148,2.409 -22.003,2.456C-21.856,2.502 -21.712,2.548 -21.565,2.593L-21.564,2.593C-21.419,2.637 -21.273,2.681 -21.126,2.723C-20.979,2.765 -20.833,2.806 -20.687,2.845L-20.686,2.846C-20.539,2.885 -20.392,2.924 -20.244,2.96L-20.244,2.961C-20.097,2.999 -19.949,3.034 -19.802,3.069L-19.801,3.069C-19.654,3.104 -19.506,3.137 -19.358,3.169L-19.357,3.169C-19.21,3.202 -19.062,3.233 -18.914,3.263L-18.913,3.263C-18.765,3.292 -18.617,3.322 -18.468,3.349L-18.467,3.349C-18.318,3.376 -18.171,3.403 -18.022,3.427L-18.021,3.427C-17.873,3.453 -17.725,3.476 -17.576,3.499L-17.574,3.499C-17.426,3.521 -17.277,3.541 -17.129,3.562L-17.128,3.562C-16.979,3.583 -16.83,3.601 -16.681,3.618L-16.68,3.619C-16.531,3.636 -16.382,3.652 -16.233,3.667L-16.232,3.667C-16.083,3.682 -15.935,3.696 -15.785,3.708L-15.784,3.708C-15.635,3.721 -15.487,3.733 -15.338,3.743L-15.336,3.743C-15.188,3.753 -15.038,3.762 -14.89,3.769L-14.888,3.77C-14.739,3.777 -14.59,3.784 -14.441,3.789L-14.44,3.789C-14.291,3.793 -14.143,3.797 -13.994,3.8L-13.993,3.8C-13.844,3.803 -13.695,3.804 -13.547,3.805L-13.545,3.805C-13.396,3.805 -13.248,3.804 -13.1,3.802L-13.098,3.802C-12.949,3.8 -12.801,3.796 -12.653,3.791L-12.651,3.791C-12.504,3.787 -12.355,3.781 -12.208,3.774L-12.206,3.774C-12.058,3.766 -11.91,3.758 -11.762,3.749L-11.761,3.749C-11.613,3.739 -11.466,3.728 -11.318,3.716L-11.316,3.715C-11.169,3.704 -11.021,3.69 -10.875,3.675L-10.873,3.675C-10.727,3.662 -10.579,3.646 -10.433,3.628L-10.431,3.627C-10.283,3.611 -10.138,3.593 -9.991,3.573L-9.99,3.573C-9.844,3.553 -9.697,3.533 -9.552,3.51L-9.55,3.51C-9.403,3.488 -9.259,3.465 -9.113,3.441L-9.111,3.44C-8.966,3.416 -8.82,3.39 -8.677,3.364L-8.674,3.363C-8.529,3.335 -8.385,3.307 -8.241,3.278L-8.238,3.278C-8.095,3.249 -7.95,3.217 -7.806,3.186L-7.805,3.186C-7.66,3.153 -7.518,3.121 -7.374,3.086L-7.372,3.085C-7.229,3.051 -7.086,3.016 -6.943,2.979L-6.941,2.978C-6.8,2.941 -6.657,2.904 -6.516,2.864L-6.514,2.863C-6.372,2.824 -6.229,2.784 -6.089,2.742L-6.087,2.742C-5.946,2.7 -5.806,2.656 -5.665,2.613L-5.663,2.611C-5.522,2.567 -5.382,2.522 -5.242,2.475L-5.24,2.474C-5.101,2.428 -4.962,2.379 -4.823,2.331L-4.821,2.33C-4.683,2.281 -4.544,2.229 -4.406,2.178L-4.403,2.177C-4.266,2.125 -4.128,2.073 -3.991,2.018L-3.989,2.017C-3.852,1.963 -3.716,1.908 -3.579,1.851L-3.577,1.85C-3.44,1.793 -3.306,1.736 -3.17,1.676L-3.168,1.675C-3.033,1.617 -2.897,1.556 -2.764,1.495L-2.761,1.494C-2.627,1.431 -2.493,1.369 -2.36,1.304L-2.358,1.303C-2.225,1.239 -2.092,1.174 -1.96,1.108L-1.958,1.106C-1.825,1.04 -1.693,0.971 -1.562,0.903L-1.56,0.901C-1.429,0.832 -1.299,0.762 -1.169,0.69L-1.166,0.689C-1.036,0.618 -0.906,0.544 -0.777,0.471L-0.775,0.469C-0.646,0.395 -0.519,0.319 -0.391,0.244L-0.389,0.242C-0.261,0.166 -0.134,0.087 -0.008,0.008L-0.005,0.006L-0.006,0.007L-0.005,0.006L-0.007,0.009C-5.098,8.154 -5.041,18.796 0,27.52" style="fill:rgb(147,149,152);fill-rule:nonzero;"/>
        </g>
        <g transform="matrix(1,0,0,1,351.177,110.205)">
            <path d="M0,27.515C-8.726,22.473 -19.368,22.418 -27.512,27.508L-27.515,27.51L-27.514,27.509L-27.515,27.509L-27.514,27.507C-27.435,27.381 -27.356,27.254 -27.279,27.126L-27.278,27.123L-0.392,0.238L-0.389,0.236C-0.262,0.16 -0.135,0.081 -0.009,0.002L-0.006,0L-0.007,0.002L-0.006,0L-0.008,0.003C-5.099,8.148 -5.042,18.789 0,27.515" style="fill:rgb(188,190,192);fill-rule:nonzero;"/>
        </g>
        <g transform="matrix(1,0,0,1,271.666,125.512)">
            <path d="M0,64.048L15.706,48.556L36.886,27.686C41.103,23.19 43.685,17.14 43.685,10.489C43.685,3.505 40.813,-2.794 36.216,-7.348L28.141,-15.314L-7.059,19.402C-14.418,26.918 -18.955,37.21 -18.955,48.562C-18.955,59.783 -14.521,69.968 -7.311,77.462L-5.384,79.362C-5.464,78.645 -5.505,77.918 -5.505,77.181C-5.505,72.044 -3.394,67.39 0,64.048" style="fill:white;"/>
        </g>
        <g transform="matrix(1,0,0,1,271.666,222.629)">
            <path d="M0,-64.048L15.706,-48.556L36.886,-27.687C41.103,-23.19 43.685,-17.142 43.685,-10.49C43.685,-3.507 40.813,2.792 36.216,7.348L28.141,15.314L-7.191,-19.533C-14.474,-27.038 -18.955,-37.274 -18.955,-48.556C-18.955,-59.836 -14.475,-70.071 -7.196,-77.575L-5.384,-79.362C-5.464,-78.646 -5.505,-77.917 -5.505,-77.183C-5.505,-72.044 -3.394,-67.39 0,-64.048" style="fill:rgb(241,242,242);"/>
        </g>
        <g transform="matrix(1,0,0,1,360.053,254.489)">
            <path d="M0,-64.048L-15.706,-48.556L-36.886,-27.686C-41.103,-23.19 -43.684,-17.141 -43.684,-10.491C-43.684,-3.506 -40.814,2.793 -36.217,7.348L-28.141,15.314L7.059,-19.402C14.418,-26.919 18.955,-37.211 18.955,-48.562C18.955,-59.783 14.521,-69.968 7.311,-77.463L5.384,-79.362C5.464,-78.646 5.505,-77.918 5.505,-77.182C5.505,-72.044 3.393,-67.39 0,-64.048" style="fill:white;"/>
        </g>
        <g transform="matrix(1,0,0,1,360.05,161.228)">
            <path d="M0,60.19L-15.702,44.7L-36.883,23.829C-41.1,19.332 -43.681,13.286 -43.681,6.633C-43.681,-0.351 -40.812,-6.65 -36.213,-11.206L-28.138,-19.172L7.193,15.677C14.476,23.18 18.96,33.417 18.96,44.7C18.96,55.978 14.478,66.213 7.198,73.718L5.386,75.505L5.387,75.5L1.472,79.362C3.486,77.006 4.705,73.948 4.705,70.606C4.705,68.258 4.105,66.049 3.048,64.128L3.015,64.067L2.981,64.009C2.658,63.459 2.307,62.928 1.931,62.417L1.904,62.381L1.846,62.308L1.854,62.316C1.291,61.56 0.67,60.85 0,60.19" style="fill:rgb(241,242,242);"/>
        </g>
        <g transform="matrix(1,0,0,1,270.199,156.451)">
            <path d="M0,-17.053L-5.592,-11.537C-6.923,-10.178 -8.162,-8.729 -9.297,-7.198L-0.374,0C-2.164,-2.286 -3.231,-5.168 -3.231,-8.298C-3.231,-11.64 -2.015,-14.699 0,-17.053" style="fill:rgb(241,242,242);"/>
        </g>
        <g transform="matrix(1,0,0,1,0,88.326)">
            <rect x="410.957" y="111.276" width="15.634" height="69.122" style="fill:white;"/>
        </g>
        <g transform="matrix(1,0,0,1,459.84,268.724)">
            <path d="M0,-69.122L26.373,-27.648L26.373,-69.122L42.005,-69.122L42.005,0L26.798,0L0.532,-41.366L0.532,0L-15.102,0L-15.102,-69.122L0,-69.122Z" style="fill:white;fill-rule:nonzero;"/>
        </g>
        <g transform="matrix(1,0,0,1,528.331,224.484)">
            <path d="M0,19.357C1.134,21.483 3.616,23.769 7.445,26.216C11.272,28.662 15.277,29.884 19.461,29.884C25.203,29.884 28.074,27.969 28.074,24.141C28.074,23.291 27.737,22.493 27.065,21.748C26.39,21.003 25.434,20.35 24.193,19.783C22.952,19.214 21.764,18.737 20.632,18.346C19.496,17.958 18.148,17.532 16.59,17.07C15.028,16.61 13.895,16.237 13.187,15.953C13.043,15.883 11.928,15.511 9.836,14.837C7.744,14.165 6.114,13.597 4.945,13.136C3.775,12.674 2.127,11.842 0,10.636C-2.126,9.432 -3.793,8.191 -4.997,6.915C-6.204,5.638 -7.284,3.956 -8.241,1.863C-9.198,-0.227 -9.677,-2.513 -9.677,-4.996C-9.677,-12.157 -7.037,-17.472 -1.754,-20.948C3.526,-24.42 9.997,-26.159 17.653,-26.159C24.034,-26.159 29.829,-24.598 35.039,-21.479C40.251,-18.359 43.601,-14.849 45.089,-10.953L32.753,-2.763C31.69,-4.535 29.526,-6.272 26.267,-7.974C23.005,-9.675 19.496,-10.526 15.738,-10.526C10.775,-10.526 8.296,-8.931 8.296,-5.74C8.296,-4.818 8.614,-3.987 9.253,-3.242C9.891,-2.497 10.811,-1.824 12.017,-1.221C13.221,-0.618 14.339,-0.139 15.367,0.214C16.394,0.57 17.724,0.996 19.354,1.49C20.985,1.987 22.12,2.34 22.758,2.553C22.827,2.625 23.732,2.944 25.469,3.511C27.206,4.079 28.554,4.575 29.511,5C30.468,5.425 31.867,6.064 33.711,6.915C35.554,7.765 37.061,8.688 38.23,9.679C39.399,10.673 40.605,11.842 41.847,13.188C43.085,14.536 44.025,16.079 44.664,17.814C45.302,19.552 45.621,21.413 45.621,23.397C45.621,30.486 43.085,35.946 38.018,39.773C32.947,43.602 26.16,45.516 17.653,45.516C10.066,45.516 3.598,43.815 -1.754,40.412C-7.108,37.009 -10.705,33.004 -12.549,28.394L0,19.357Z" style="fill:white;fill-rule:nonzero;"/>
        </g>
        <g transform="matrix(1,0,0,1,0,88.326)">
            <rect x="587.89" y="111.276" width="15.633" height="69.122" style="fill:white;"/>
        </g>
        <g transform="matrix(1,0,0,1,627.244,259.577)">
            <path d="M0,-50.83C6.522,-57.493 14.887,-60.827 25.097,-60.827C31.122,-60.827 36.528,-59.602 41.314,-57.157C46.099,-54.712 50.016,-51.324 53.064,-47.002L40.409,-37.643C36.723,-42.677 31.619,-45.193 25.097,-45.193C19.424,-45.193 14.798,-43.351 11.219,-39.664C7.639,-35.976 5.85,-31.227 5.85,-25.414C5.85,-19.601 7.639,-14.85 11.219,-11.164C14.798,-7.477 19.424,-5.635 25.097,-5.635C28.641,-5.635 31.866,-6.573 34.774,-8.452C37.68,-10.331 39.522,-13.042 40.303,-16.588L24.14,-16.588L24.14,-30.838L58.276,-30.838L58.276,-23.819C57.92,-13.822 54.765,-5.687 48.812,0.585C42.855,6.86 34.95,9.997 25.097,9.997C14.887,9.997 6.522,6.665 0,0.002C-6.523,-6.662 -9.783,-15.134 -9.783,-25.414C-9.783,-35.692 -6.523,-44.165 0,-50.83" style="fill:white;fill-rule:nonzero;"/>
        </g>
        <g transform="matrix(1,0,0,1,715.092,268.724)">
            <path d="M0,-69.122L0,-42.111L26.798,-42.111L26.798,-69.122L42.431,-69.122L42.431,0L26.798,0L26.798,-27.011L0,-27.011L0,0L-15.634,0L-15.634,-69.122L0,-69.122Z" style="fill:white;fill-rule:nonzero;"/>
        </g>
        <g transform="matrix(1,0,0,1,771.461,268.724)">
            <path d="M0,-69.122L55.828,-69.122L55.828,-54.873L35.729,-54.873L35.729,0L20.098,0L20.098,-54.873L0,-54.873L0,-69.122Z" style="fill:white;fill-rule:nonzero;"/>
        </g>
        <g transform="matrix(1,0,0,1,0,-90.819)">
            <rect x="477.918" y="200.819" width="14.821" height="69.181" style="fill:white;"/>
        </g>
        <g transform="matrix(1,0,0,1,562.988,110)">
            <path d="M0,69.181L-35.213,24.085L-35.213,69.181L-50.032,69.181L-50.032,0L-35.213,0L-0.931,43.853L-0.931,0L13.902,0L13.902,69.181L0,69.181Z" style="fill:white;fill-rule:nonzero;"/>
        </g>
        <g transform="matrix(1,0,0,1,614.804,136.97)">
            <path d="M0,15.237L8.341,-7.927L16.584,15.237L0,15.237ZM15.142,-26.97L1.444,-26.97L-25.425,42.207L-9.672,42.207L-4.625,28L21.212,28L26.258,42.207L42.009,42.207L15.142,-26.97Z" style="fill:white;fill-rule:nonzero;"/>
        </g>
        <g transform="matrix(1,0,0,1,691.959,149.227)">
            <path d="M0,-9.273L-6.39,-9.273L-6.39,-25.437L0.198,-25.437C6.379,-25.437 9.774,-22.347 9.774,-17.509C9.774,-13.08 7.095,-9.273 0,-9.273M13.591,0.2C19.657,-3.298 24.598,-9.062 24.598,-17.813C24.598,-24.406 20.896,-39.227 1.646,-39.227L-21.209,-39.227L-21.209,29.954L-6.39,29.954L-6.39,4.012L-0.931,4.012L17.396,29.954L36.032,29.954L13.591,0.2Z" style="fill:white;fill-rule:nonzero;"/>
        </g>
        <g transform="matrix(1,0,0,1,436.185,122.664)">
            <path d="M0,43.853L-10.394,43.853L-10.394,27.791L-1.236,27.791C5.458,27.791 9.16,31.088 9.16,35.925C9.16,40.558 5.458,43.853 0,43.853M-10.394,-0.005L-3.913,-0.005C2.472,-0.005 5.353,3.295 5.353,7.306C5.353,12.355 1.848,15.132 -3.709,15.132L-10.394,15.132L-10.394,-0.005ZM9.78,19.765C14.934,17.603 19.66,12.557 19.66,5.658C19.66,-3.297 12.969,-12.664 -2.365,-12.664L-25.228,-12.664L-25.228,56.517L2.576,56.517C13.489,56.517 24.091,49.617 24.091,36.338C24.091,27.283 16.473,21.207 9.78,19.765" style="fill:white;fill-rule:nonzero;"/>
        </g>
    </g>
</svg>
