<?xml version="1.0" encoding="UTF-8" standalone="no"?>
<!DOCTYPE svg PUBLIC "-//W3C//DTD SVG 1.1//EN" "http://www.w3.org/Graphics/SVG/1.1/DTD/svg11.dtd">
<svg width="100%" height="100%" viewBox="0 0 494 161" version="1.1" xmlns="http://www.w3.org/2000/svg" xmlns:xlink="http://www.w3.org/1999/xlink" xml:space="preserve" xmlns:serif="http://www.serif.com/" style="fill-rule:evenodd;clip-rule:evenodd;stroke-linejoin:round;stroke-miterlimit:2;">
    <g transform="matrix(1,0,0,1,-293.109,-110)">
        <g transform="matrix(1,0,0,1,423.202,191.861)">
            <path d="M0,50.217L-40.923,73.868C-45.541,76.581 -50.92,78.139 -56.663,78.139C-62.407,78.139 -67.788,76.582 -72.407,73.868L-113.254,50.257C-108.384,53.039 -102.745,54.628 -96.734,54.628C-90.486,54.628 -84.639,52.91 -79.639,49.921L-8.905,9.208C-5.096,7.025 -2.529,2.918 -2.529,-1.788C-2.529,-6.44 -5.017,-10.526 -8.754,-12.728L-8.984,-12.861L-8.984,-27.922L16.769,-6.154L16.769,21.269C16.769,33.654 10.02,44.462 0,50.217" style="fill:white;"/>
        </g>
        <g transform="matrix(1,0,0,1,310.01,234.024)">
            <path d="M0,-96.177L41.043,-119.903C40.885,-119.812 44.217,-92.144 44.525,-89.452C36.417,-94.239 25.952,-88.684 25.487,-79.215L25.482,-79.159L25.469,-78.559L25.469,-9.341C25.469,-2.36 31.128,3.3 38.108,3.3C39.902,3.3 41.608,2.926 43.153,2.253L50.364,9.667L26.982,23.726L-0.062,8.094C-10.12,2.35 -16.901,-8.48 -16.901,-20.894L-16.901,-67.154C-16.901,-79.593 -10.094,-90.442 0,-96.177" style="fill:rgb(230,231,232);"/>
        </g>
        <g transform="matrix(1,0,0,1,366.539,166.125)">
            <path d="M0,47.75C-3.194,35.807 -12.379,26.526 -23.861,23.876L-23.864,23.876L-23.863,23.876L-23.864,23.876L-23.861,23.876C-23.683,23.835 -23.506,23.792 -23.328,23.748L-23.325,23.747C-23.147,23.703 -22.971,23.657 -22.796,23.609L-22.792,23.608C-22.615,23.561 -22.44,23.512 -22.266,23.461L-22.262,23.459C-22.087,23.409 -21.913,23.357 -21.739,23.304L-21.735,23.302C-21.562,23.248 -21.39,23.193 -21.217,23.136L-21.214,23.135C-21.041,23.078 -20.87,23.021 -20.698,22.96L-20.695,22.959C-20.524,22.899 -20.354,22.837 -20.184,22.775L-20.181,22.773C-20.011,22.71 -19.842,22.646 -19.673,22.581L-19.67,22.579C-19.501,22.513 -19.334,22.446 -19.166,22.377L-19.164,22.375C-18.996,22.307 -18.829,22.236 -18.664,22.165L-18.661,22.163C-18.495,22.092 -18.33,22.019 -18.166,21.943L-18.163,21.942C-17.998,21.867 -17.835,21.791 -17.672,21.714L-17.669,21.712C-17.506,21.634 -17.343,21.556 -17.182,21.475L-17.179,21.474C-17.018,21.393 -16.857,21.311 -16.697,21.228L-16.694,21.227C-16.534,21.144 -16.375,21.059 -16.216,20.973L-16.214,20.971C-16.055,20.885 -15.897,20.797 -15.74,20.708L-15.738,20.707C-15.581,20.618 -15.425,20.528 -15.269,20.437L-15.267,20.435C-15.111,20.343 -14.956,20.25 -14.802,20.156L-14.8,20.155C-14.646,20.061 -14.492,19.965 -14.341,19.868L-14.338,19.866C-14.186,19.77 -14.034,19.671 -13.884,19.571L-13.882,19.57C-13.731,19.47 -13.581,19.369 -13.433,19.267L-13.431,19.266C-13.281,19.164 -13.133,19.06 -12.986,18.955L-12.984,18.954C-12.837,18.849 -12.69,18.742 -12.545,18.636L-12.543,18.634C-12.396,18.527 -12.252,18.418 -12.108,18.308L-12.107,18.307C-11.963,18.197 -11.82,18.085 -11.678,17.973L-11.677,17.972C-11.534,17.859 -11.394,17.745 -11.253,17.631L-11.252,17.629C-11.111,17.515 -10.972,17.398 -10.833,17.281L-10.832,17.28C-10.694,17.162 -10.557,17.043 -10.42,16.924L-10.418,16.923C-10.281,16.803 -10.146,16.682 -10.012,16.56L-10.01,16.558C-9.875,16.437 -9.742,16.313 -9.609,16.188L-9.607,16.187C-9.476,16.063 -9.344,15.937 -9.213,15.81L-9.212,15.809C-9.081,15.682 -8.952,15.554 -8.823,15.425L-8.821,15.424C-8.692,15.294 -8.565,15.165 -8.438,15.033L-8.438,15.032C-8.311,14.9 -8.185,14.768 -8.061,14.634L-8.06,14.634C-7.935,14.5 -7.812,14.365 -7.688,14.229L-7.687,14.228C-7.565,14.092 -7.443,13.956 -7.322,13.817L-7.321,13.816C-7.201,13.678 -7.082,13.54 -6.964,13.399L-6.963,13.398C-6.845,13.258 -6.727,13.116 -6.611,12.975L-6.61,12.973C-6.494,12.832 -6.379,12.688 -6.265,12.543L-6.265,12.542C-6.149,12.398 -6.037,12.253 -5.926,12.106L-5.925,12.105C-5.812,11.959 -5.702,11.812 -5.593,11.663L-5.592,11.662C-5.482,11.514 -5.374,11.364 -5.267,11.214L-5.267,11.213C-5.158,11.062 -5.053,10.911 -4.948,10.759L-4.947,10.758C-4.843,10.606 -4.739,10.453 -4.636,10.298L-4.636,10.297C-4.532,10.143 -4.432,9.988 -4.331,9.832L-4.331,9.831C-4.23,9.674 -4.132,9.518 -4.033,9.359L-4.033,9.358C-3.936,9.201 -3.839,9.041 -3.743,8.882L-3.743,8.881C-3.647,8.721 -3.554,8.56 -3.461,8.398L-3.46,8.397C-3.367,8.236 -3.275,8.073 -3.185,7.91L-3.185,7.909C-3.094,7.746 -3.005,7.582 -2.916,7.416C-2.828,7.25 -2.741,7.084 -2.656,6.917L-2.655,6.917C-2.57,6.75 -2.486,6.582 -2.403,6.413L-2.403,6.412C-2.32,6.244 -2.238,6.074 -2.158,5.904L-2.158,5.903C-2.078,5.733 -1.999,5.561 -1.921,5.39L-1.921,5.389C-1.843,5.217 -1.768,5.045 -1.691,4.871C-1.616,4.697 -1.542,4.522 -1.471,4.348L-1.471,4.347C-1.397,4.172 -1.327,3.996 -1.258,3.819C-1.188,3.642 -1.119,3.464 -1.053,3.286C-0.985,3.108 -0.92,2.929 -0.855,2.749C-0.791,2.569 -0.729,2.389 -0.668,2.208C-0.606,2.026 -0.546,1.844 -0.487,1.662C-0.429,1.479 -0.372,1.296 -0.316,1.112C-0.261,0.928 -0.206,0.744 -0.154,0.559L-0.154,0.558C-0.101,0.373 -0.05,0.187 0,0C0.05,0.187 0.102,0.373 0.154,0.558L0.154,0.559C0.207,0.744 0.261,0.928 0.317,1.112C0.373,1.296 0.43,1.479 0.488,1.662C0.547,1.844 0.606,2.026 0.668,2.208L0.669,2.208C0.729,2.389 0.793,2.569 0.856,2.749L0.857,2.749C0.921,2.929 0.986,3.108 1.054,3.286C1.12,3.465 1.188,3.642 1.259,3.819C1.328,3.996 1.399,4.171 1.471,4.347L1.472,4.348C1.544,4.522 1.617,4.697 1.692,4.871L1.693,4.871C1.768,5.045 1.844,5.217 1.922,5.389L1.922,5.39C2,5.562 2.078,5.733 2.159,5.903L2.159,5.904C2.24,6.074 2.321,6.244 2.403,6.412L2.404,6.413C2.487,6.582 2.571,6.75 2.656,6.917L2.657,6.917C2.743,7.084 2.829,7.25 2.917,7.416C3.006,7.582 3.095,7.746 3.186,7.909L3.186,7.91C3.276,8.073 3.367,8.236 3.461,8.397L3.461,8.398C3.554,8.56 3.648,8.721 3.744,8.881L3.744,8.882C3.84,9.042 3.937,9.201 4.034,9.358L4.034,9.359C4.132,9.517 4.231,9.674 4.332,9.831L4.333,9.832C4.432,9.988 4.533,10.143 4.637,10.297L4.637,10.298C4.74,10.453 4.844,10.606 4.948,10.758L4.949,10.759C5.055,10.911 5.16,11.062 5.268,11.213L5.268,11.214C5.375,11.364 5.483,11.514 5.593,11.662L5.595,11.663C5.703,11.812 5.813,11.959 5.926,12.105L5.927,12.106C6.038,12.253 6.151,12.398 6.265,12.542L6.266,12.543C6.38,12.688 6.495,12.832 6.611,12.973L6.611,12.975C6.728,13.116 6.845,13.258 6.963,13.398L6.965,13.399C7.083,13.54 7.202,13.678 7.322,13.816L7.324,13.817C7.444,13.956 7.566,14.092 7.688,14.228L7.689,14.229C7.812,14.365 7.936,14.5 8.061,14.634C8.186,14.768 8.312,14.9 8.438,15.032L8.439,15.033C8.566,15.165 8.693,15.294 8.822,15.424L8.823,15.425C8.953,15.554 9.082,15.683 9.212,15.809L9.214,15.81C9.345,15.937 9.477,16.063 9.609,16.187L9.61,16.188C9.743,16.313 9.877,16.437 10.011,16.558L10.013,16.56C10.147,16.682 10.283,16.803 10.42,16.923L10.421,16.924C10.558,17.043 10.694,17.162 10.833,17.28L10.835,17.281C10.973,17.398 11.112,17.515 11.253,17.629L11.254,17.631C11.394,17.745 11.535,17.859 11.677,17.972L11.679,17.973C11.821,18.085 11.965,18.197 12.108,18.307L12.109,18.308C12.254,18.417 12.398,18.527 12.544,18.634L12.545,18.636C12.691,18.742 12.837,18.849 12.985,18.954L12.986,18.955C13.134,19.06 13.281,19.164 13.431,19.266L13.433,19.267C13.582,19.369 13.732,19.47 13.883,19.57L13.884,19.571C14.035,19.67 14.187,19.77 14.34,19.866L14.342,19.868C14.494,19.964 14.646,20.061 14.801,20.155L14.803,20.156C14.957,20.25 15.111,20.344 15.267,20.435L15.27,20.437C15.425,20.528 15.581,20.618 15.738,20.707L15.741,20.708C15.897,20.798 16.056,20.885 16.215,20.971L16.217,20.973C16.375,21.059 16.535,21.144 16.694,21.227L16.697,21.228C16.857,21.311 17.018,21.393 17.181,21.474L17.183,21.475C17.345,21.556 17.507,21.634 17.67,21.712L17.673,21.714C17.835,21.791 17.999,21.867 18.164,21.942L18.166,21.943C18.331,22.019 18.496,22.092 18.663,22.163L18.665,22.165C18.83,22.236 18.997,22.307 19.165,22.375L19.167,22.377C19.334,22.446 19.502,22.513 19.671,22.579L19.674,22.581C19.843,22.646 20.012,22.71 20.182,22.773L20.185,22.775C20.354,22.837 20.525,22.898 20.696,22.959L20.699,22.96C20.871,23.021 21.043,23.078 21.215,23.135L21.218,23.136C21.39,23.193 21.563,23.248 21.737,23.302L21.74,23.304C21.914,23.357 22.088,23.409 22.263,23.459L22.267,23.461C22.441,23.512 22.616,23.561 22.792,23.608L22.796,23.609C22.972,23.657 23.149,23.703 23.325,23.747L23.329,23.748C23.507,23.792 23.684,23.835 23.862,23.876L23.865,23.876L23.863,23.876L23.865,23.876L23.862,23.876C12.381,26.526 3.195,35.807 0,47.75" style="fill:rgb(147,149,152);fill-rule:nonzero;"/>
        </g>
        <g transform="matrix(1,0,0,1,366.539,189.872)">
            <path d="M0,24.003C-3.194,12.06 -12.38,2.779 -23.861,0.129L-23.864,0.129L-23.863,0.129L-23.864,0.128L-23.861,0.128C-23.684,0.087 -23.506,0.045 -23.328,0.001L-23.325,0L23.325,0L23.329,0.001C23.507,0.045 23.684,0.087 23.862,0.128L23.865,0.128L23.863,0.129L23.865,0.129L23.862,0.129C12.38,2.779 3.195,12.06 0,24.003" style="fill:rgb(188,190,192);fill-rule:nonzero;"/>
        </g>
        <g transform="matrix(1,0,0,1,423.263,138.912)">
            <path d="M0,45.306C9.986,51.07 16.708,61.86 16.708,74.218L16.708,27.959C16.708,15.557 9.938,4.735 -0.104,-1.013L-41.253,-24.771C-45.814,-27.393 -51.084,-28.912 -56.724,-28.912C-73.911,-28.912 -87.845,-14.977 -87.845,2.211L-87.784,16.553C-87.784,6.687 -77.021,0.764 -68.728,5.66L0,45.306Z" style="fill:rgb(241,242,242);"/>
        </g>
        <g transform="matrix(1,0,0,1,366.539,154.809)">
            <path d="M0,-44.809C-17.187,-44.809 -31.121,-30.874 -31.121,-13.686L-31.063,0L-31.042,0C-30.577,-9.469 -20.112,-15.023 -12.004,-10.237L0,-3.312L0,-44.809Z" style="fill:rgb(241,242,242);"/>
        </g>
        <g transform="matrix(1,0,0,1,366.539,228.558)">
            <path d="M0,41.442C-5.744,41.442 -11.125,39.885 -15.744,37.171L-56.591,13.56C-51.721,16.342 -46.082,17.931 -40.071,17.931C-33.823,17.931 -27.976,16.213 -22.976,13.224L0,0L0,41.442Z" style="fill:white;"/>
        </g>
        <g transform="matrix(1,0,0,1,480.562,259.671)">
            <path d="M0,-50.946C6.536,-57.625 14.921,-60.966 25.154,-60.966C31.192,-60.966 36.61,-59.74 41.407,-57.288C46.204,-54.837 50.129,-51.443 53.185,-47.11L40.501,-37.729C36.807,-42.774 31.69,-45.297 25.154,-45.297C19.469,-45.297 14.832,-43.449 11.243,-39.756C7.655,-36.059 5.862,-31.299 5.862,-25.472C5.862,-19.646 7.655,-14.884 11.243,-11.19C14.832,-7.496 19.469,-5.648 25.154,-5.648C28.705,-5.648 31.937,-6.59 34.853,-8.473C37.766,-10.355 39.611,-13.073 40.395,-16.627L24.195,-16.627L24.195,-30.908L58.408,-30.908L58.408,-23.874C58.051,-13.856 54.89,-5.701 48.923,0.586C42.952,6.874 35.029,10.02 25.154,10.02C14.921,10.02 6.536,6.68 0,0C-6.537,-6.677 -9.807,-15.17 -9.807,-25.472C-9.807,-35.774 -6.537,-44.266 0,-50.946" style="fill:white;fill-rule:nonzero;"/>
        </g>
        <g transform="matrix(1,0,0,1,566.36,234.197)">
            <path d="M0,0.001C0,5.827 1.812,10.589 5.436,14.283C8.989,17.978 13.605,19.825 19.292,19.825C24.976,19.825 29.578,17.978 33.095,14.283C36.611,10.589 38.37,5.827 38.37,0.001C38.37,-5.825 36.611,-10.586 33.095,-14.282C29.578,-17.976 24.976,-19.823 19.292,-19.823C13.605,-19.823 8.969,-17.976 5.383,-14.282C1.795,-10.586 0,-5.825 0,0.001M-15.667,0.001C-15.667,-10.301 -12.4,-18.793 -5.861,-25.473C0.675,-32.151 9.06,-35.492 19.292,-35.492C29.523,-35.492 37.872,-32.151 44.338,-25.473C50.804,-18.793 54.038,-10.301 54.038,0.001C54.038,10.304 50.804,18.796 44.338,25.474C37.872,32.153 29.523,35.493 19.292,35.493C9.06,35.493 0.675,32.153 -5.861,25.474C-12.4,18.796 -15.667,10.304 -15.667,0.001" style="fill:white;fill-rule:nonzero;"/>
        </g>
        <g transform="matrix(1,0,0,1,646.402,269.583)">
            <path d="M0,-70.025L-1.066,-21.529L-14.708,-21.529L-15.668,-70.025L0,-70.025ZM-13.536,-13.642C-12.043,-15.133 -10.125,-15.88 -7.779,-15.88C-5.507,-15.88 -3.623,-15.133 -2.132,-13.642C-0.64,-12.15 0.107,-10.266 0.107,-7.993C0.107,-5.717 -0.64,-3.818 -2.132,-2.291C-3.623,-0.762 -5.507,0 -7.779,0C-10.125,0 -12.043,-0.762 -13.536,-2.291C-15.028,-3.818 -15.774,-5.717 -15.774,-7.993C-15.774,-10.266 -15.028,-12.15 -13.536,-13.642" style="fill:white;fill-rule:nonzero;"/>
        </g>
        <g transform="matrix(1,0,0,1,0,-90.028)">
            <rect x="537.125" y="200.338" width="14.858" height="69.352" style="fill:white;"/>
        </g>
        <g transform="matrix(1,0,0,1,622.405,110.31)">
            <path d="M0,69.352L-35.3,24.145L-35.3,69.352L-50.156,69.352L-50.156,0L-35.3,0L-0.933,43.962L-0.933,0L13.938,0L13.938,69.352L0,69.352Z" style="fill:white;fill-rule:nonzero;"/>
        </g>
        <g transform="matrix(1,0,0,1,674.35,137.347)">
            <path d="M0,15.275L8.36,-7.946L16.624,15.275L0,15.275ZM15.179,-27.037L1.447,-27.037L-25.488,42.312L-9.696,42.312L-4.637,28.068L21.264,28.068L26.321,42.312L42.111,42.312L15.179,-27.037Z" style="fill:white;fill-rule:nonzero;"/>
        </g>
        <g transform="matrix(1,0,0,1,750.771,149.633)">
            <path d="M0,-9.295L-6.405,-9.295L-6.405,-25.499L0.199,-25.499C6.395,-25.499 9.799,-22.401 9.799,-17.552C9.799,-13.111 7.112,-9.295 0,-9.295M13.624,0.201C19.705,-3.305 24.658,-9.084 24.658,-17.856C24.658,-24.465 20.948,-39.323 1.649,-39.323L-21.261,-39.323L-21.261,30.028L-6.405,30.028L-6.405,4.022L-0.934,4.022L17.438,30.028L36.121,30.028L13.624,0.201Z" style="fill:white;fill-rule:nonzero;"/>
        </g>
        <g transform="matrix(1,0,0,1,495.289,123.005)">
            <path d="M0,43.961L-10.419,43.961L-10.419,27.858L-1.239,27.858C5.471,27.858 9.183,31.165 9.183,36.014C9.183,40.658 5.471,43.961 0,43.961M-10.419,-0.005L-3.923,-0.005C2.478,-0.005 5.366,3.304 5.366,7.324C5.366,12.385 1.853,15.17 -3.718,15.17L-10.419,15.17L-10.419,-0.005ZM9.805,19.814C14.97,17.646 19.708,12.587 19.708,5.671C19.708,-3.306 13,-12.695 -2.372,-12.695L-25.29,-12.695L-25.29,56.656L2.582,56.656C13.522,56.656 24.149,49.739 24.149,36.428C24.149,27.35 16.513,21.258 9.805,19.814" style="fill:white;fill-rule:nonzero;"/>
        </g>
    </g>
</svg>
