<?xml version="1.0" encoding="UTF-8" standalone="no"?>
<!DOCTYPE svg PUBLIC "-//W3C//DTD SVG 1.1//EN" "http://www.w3.org/Graphics/SVG/1.1/DTD/svg11.dtd">
<svg width="100%" height="100%" viewBox="0 0 750 161" version="1.1" xmlns="http://www.w3.org/2000/svg" xmlns:xlink="http://www.w3.org/1999/xlink" xml:space="preserve" xmlns:serif="http://www.serif.com/" style="fill-rule:evenodd;clip-rule:evenodd;stroke-linejoin:round;stroke-miterlimit:2;">
    <g transform="matrix(1,0,0,1,-165.423,-108.5)">
        <g transform="matrix(1,0,0,1,222.971,216.544)">
            <path d="M0,29.411L18.426,10.731L43.247,-14.459C48.595,-19.474 55.789,-22.545 63.698,-22.545C72.006,-22.545 79.497,-19.131 84.915,-13.662L94.389,-4.058L53.1,37.806C44.16,46.559 31.919,51.956 18.419,51.956C5.072,51.956 -7.04,46.682 -15.954,38.105L-18.215,35.814C-17.36,35.91 -16.495,35.959 -15.62,35.959C-9.51,35.959 -3.975,33.447 0,29.411" style="fill:white;"/>
        </g>
        <g transform="matrix(1,0,0,1,259.813,216.544)">
            <path d="M0,29.411L-18.423,10.732L-43.246,-14.459C-48.594,-19.475 -55.787,-22.545 -63.697,-22.545C-72.003,-22.545 -79.495,-19.131 -84.913,-13.662L-94.389,-4.059L-52.941,37.964C-44.017,46.625 -31.843,51.956 -18.423,51.956C-7.277,51.956 2.994,48.285 11.266,42.086L11.35,42.021L11.435,41.958L11.519,41.894L11.605,41.83L11.676,41.775L11.688,41.766L11.772,41.701L11.857,41.636L12.108,41.44L12.136,41.418L12.193,41.375L12.275,41.309L12.358,41.244L12.441,41.177L12.525,41.111L12.594,41.056L12.608,41.044L12.772,40.911L12.938,40.777L13.02,40.71L13.047,40.686L13.103,40.642L13.184,40.575L13.348,40.438L13.429,40.372L13.495,40.315L13.51,40.303L13.591,40.233L13.672,40.166L13.753,40.098L13.834,40.028L13.914,39.96L13.938,39.937L13.993,39.889L14.074,39.819L14.154,39.751L14.233,39.68L14.378,39.553L14.394,39.54L14.474,39.47L14.632,39.328L14.71,39.258L14.789,39.186L14.813,39.164L14.867,39.115L14.945,39.044L15.103,38.9L15.181,38.83L15.242,38.771L15.258,38.757L15.336,38.684L15.49,38.54L15.568,38.468L15.646,38.395L15.669,38.372L15.722,38.323L15.8,38.249L15.875,38.176L15.952,38.101L16.089,37.969L16.104,37.955L16.257,37.807L22.817,31.155C20.016,33.551 16.379,34.999 12.403,34.999C9.381,34.999 6.551,34.161 4.136,32.704L3.998,32.619L3.927,32.576L3.859,32.533L3.724,32.447L3.703,32.432L3.587,32.357L3.48,32.287L3.453,32.267L3.318,32.177L3.26,32.137C3.013,31.964 2.771,31.786 2.536,31.599L2.575,31.649C1.659,30.971 0.799,30.223 0,29.411" style="fill:rgb(241,242,242);"/>
        </g>
        <g transform="matrix(1,0,0,1,259.812,160.457)">
            <path d="M0,-29.413L-18.425,-10.732L-43.247,14.458C-48.595,19.473 -55.788,22.544 -63.698,22.544C-72.006,22.544 -79.497,19.13 -84.915,13.661L-94.389,4.057L-53.099,-37.808C-44.159,-46.56 -31.919,-51.957 -18.419,-51.957C-5.072,-51.957 7.04,-46.684 15.955,-38.106L18.215,-35.815C17.361,-35.911 16.496,-35.96 15.621,-35.96C9.511,-35.96 3.975,-33.448 0,-29.413" style="fill:white;"/>
        </g>
        <g transform="matrix(1,0,0,1,222.97,160.457)">
            <path d="M0,-29.413L18.424,-10.733L43.245,14.458C48.594,19.474 55.787,22.543 63.698,22.543C72.003,22.543 79.495,19.13 84.914,13.661L94.389,4.057L52.941,-37.965C44.017,-46.626 31.843,-51.956 18.424,-51.956C7.277,-51.956 -2.994,-48.286 -11.266,-42.087L-11.35,-42.023L-11.435,-41.959L-11.519,-41.895L-11.605,-41.832L-11.676,-41.776L-11.688,-41.768L-11.772,-41.702L-11.856,-41.637L-12.108,-41.441L-12.137,-41.42L-12.193,-41.376L-12.275,-41.31L-12.358,-41.245L-12.441,-41.178L-12.526,-41.112L-12.593,-41.057L-12.609,-41.046L-12.772,-40.912L-12.938,-40.778L-13.02,-40.71L-13.047,-40.688L-13.102,-40.643L-13.184,-40.576L-13.347,-40.44L-13.428,-40.373L-13.495,-40.315L-13.509,-40.304L-13.59,-40.234L-13.671,-40.167L-13.752,-40.099L-13.833,-40.029L-13.914,-39.961L-13.938,-39.937L-13.994,-39.89L-14.075,-39.821L-14.154,-39.752L-14.233,-39.681L-14.378,-39.554L-14.394,-39.541L-14.473,-39.471L-14.553,-39.399L-14.632,-39.329L-14.709,-39.259L-14.789,-39.187L-14.813,-39.165L-14.868,-39.117L-14.946,-39.044L-15.103,-38.901L-15.18,-38.831L-15.242,-38.772L-15.258,-38.759L-15.335,-38.685L-15.413,-38.613L-15.49,-38.541L-15.568,-38.469L-15.646,-38.395L-15.668,-38.374L-15.722,-38.324L-15.799,-38.25L-15.875,-38.177L-15.953,-38.103L-16.089,-37.971L-16.104,-37.956L-16.257,-37.809L-22.817,-31.156C-20.016,-33.552 -16.379,-35.001 -12.403,-35.001C-9.38,-35.001 -6.55,-34.162 -4.136,-32.705L-3.998,-32.62L-3.927,-32.577L-3.859,-32.534L-3.724,-32.448L-3.703,-32.434L-3.588,-32.358L-3.48,-32.287L-3.453,-32.268L-3.318,-32.177L-3.26,-32.138C-3.013,-31.965 -2.771,-31.788 -2.535,-31.601L-2.575,-31.651C-1.659,-30.972 -0.799,-30.223 0,-29.413" style="fill:rgb(241,242,242);"/>
        </g>
        <g transform="matrix(1,0,0,1,241.393,165.357)">
            <path d="M0,46.289C-3.098,34.711 -12.002,25.715 -23.133,23.146L-23.136,23.146L-23.134,23.145L-23.136,23.145L-23.133,23.145C-22.96,23.105 -22.788,23.064 -22.615,23.021L-22.612,23.02C-22.44,22.977 -22.27,22.933 -22.099,22.887L-22.095,22.886C-21.925,22.84 -21.754,22.793 -21.585,22.743L-21.582,22.742C-21.412,22.693 -21.244,22.643 -21.075,22.591L-21.072,22.589C-20.904,22.537 -20.736,22.483 -20.568,22.429L-20.566,22.428C-20.399,22.372 -20.231,22.316 -20.066,22.258L-20.063,22.257C-19.897,22.198 -19.732,22.14 -19.567,22.078L-19.564,22.077C-19.399,22.017 -19.235,21.954 -19.072,21.89L-19.069,21.889C-18.905,21.825 -18.743,21.759 -18.581,21.692L-18.578,21.691C-18.416,21.624 -18.255,21.556 -18.095,21.486L-18.092,21.485C-17.931,21.416 -17.771,21.345 -17.611,21.272L-17.608,21.27C-17.449,21.198 -17.29,21.125 -17.132,21.05L-17.13,21.048C-16.972,20.973 -16.813,20.895 -16.657,20.817L-16.654,20.816C-16.498,20.738 -16.342,20.659 -16.187,20.578L-16.185,20.577C-16.029,20.496 -15.875,20.415 -15.721,20.331L-15.719,20.33C-15.564,20.246 -15.411,20.161 -15.26,20.075L-15.257,20.074C-15.104,19.987 -14.953,19.899 -14.803,19.811L-14.8,19.81C-14.649,19.721 -14.5,19.631 -14.351,19.54L-14.349,19.538C-14.199,19.446 -14.051,19.354 -13.903,19.261L-13.901,19.259C-13.753,19.165 -13.606,19.069 -13.46,18.973L-13.458,18.972C-13.313,18.875 -13.167,18.776 -13.022,18.678L-13.021,18.677C-12.876,18.577 -12.731,18.477 -12.59,18.375L-12.588,18.374C-12.445,18.272 -12.303,18.17 -12.161,18.065L-12.16,18.063C-12.019,17.96 -11.878,17.854 -11.739,17.748L-11.738,17.746C-11.599,17.64 -11.46,17.532 -11.322,17.423L-11.32,17.422C-11.183,17.312 -11.045,17.202 -10.909,17.091L-10.908,17.09C-10.772,16.978 -10.638,16.866 -10.503,16.753L-10.502,16.751C-10.368,16.637 -10.234,16.521 -10.102,16.406L-10.101,16.404C-9.969,16.289 -9.837,16.171 -9.707,16.053L-9.705,16.052C-9.574,15.933 -9.445,15.813 -9.316,15.693L-9.315,15.691C-9.187,15.571 -9.06,15.449 -8.933,15.327L-8.931,15.325C-8.805,15.202 -8.679,15.078 -8.554,14.953L-8.553,14.952C-8.428,14.826 -8.305,14.701 -8.181,14.573L-8.181,14.572C-8.058,14.444 -7.936,14.316 -7.814,14.186L-7.814,14.185C-7.693,14.056 -7.573,13.926 -7.454,13.794L-7.453,13.793C-7.334,13.661 -7.217,13.528 -7.101,13.394L-7.099,13.393C-6.982,13.26 -6.866,13.125 -6.752,12.989L-6.751,12.988C-6.637,12.852 -6.522,12.715 -6.41,12.577L-6.409,12.577C-6.297,12.438 -6.186,12.3 -6.074,12.159L-6.073,12.158C-5.963,12.018 -5.854,11.878 -5.745,11.735L-5.745,11.734C-5.637,11.593 -5.529,11.45 -5.423,11.306L-5.422,11.306C-5.316,11.161 -5.211,11.017 -5.106,10.871L-5.105,10.87C-5.002,10.725 -4.899,10.577 -4.798,10.43L-4.797,10.429C-4.695,10.281 -4.595,10.133 -4.495,9.982C-4.396,9.833 -4.297,9.682 -4.2,9.53L-4.199,9.529C-4.103,9.378 -4.007,9.226 -3.911,9.073L-3.911,9.072C-3.815,8.919 -3.723,8.765 -3.63,8.609L-3.63,8.608C-3.537,8.453 -3.445,8.298 -3.355,8.141C-3.265,7.983 -3.176,7.826 -3.088,7.668L-3.088,7.667C-3,7.508 -2.914,7.35 -2.828,7.189L-2.828,7.188C-2.743,7.028 -2.658,6.867 -2.576,6.705C-2.493,6.543 -2.411,6.38 -2.331,6.217L-2.331,6.216C-2.25,6.053 -2.172,5.888 -2.094,5.723L-2.093,5.722C-2.015,5.558 -1.939,5.392 -1.863,5.225C-1.788,5.057 -1.714,4.89 -1.641,4.722C-1.568,4.553 -1.497,4.384 -1.427,4.214C-1.356,4.044 -1.287,3.873 -1.221,3.701L-1.22,3.701C-1.153,3.53 -1.087,3.358 -1.021,3.185C-0.956,3.013 -0.894,2.839 -0.83,2.665C-0.769,2.49 -0.707,2.315 -0.648,2.141L-0.648,2.14C-0.589,1.964 -0.53,1.788 -0.474,1.611L-0.474,1.61C-0.417,1.434 -0.361,1.257 -0.309,1.078C-0.254,0.899 -0.201,0.721 -0.149,0.541C-0.099,0.361 -0.049,0.181 0,0C0.048,0.181 0.097,0.361 0.148,0.541C0.2,0.721 0.252,0.899 0.307,1.078C0.36,1.257 0.416,1.434 0.473,1.61L0.473,1.611C0.529,1.788 0.587,1.964 0.646,2.14L0.646,2.141C0.706,2.315 0.768,2.49 0.829,2.665C0.892,2.839 0.955,3.013 1.02,3.185C1.085,3.358 1.15,3.53 1.219,3.701L1.22,3.701C1.286,3.873 1.354,4.044 1.425,4.214C1.495,4.384 1.566,4.553 1.64,4.722C1.712,4.89 1.786,5.057 1.861,5.225L1.862,5.225C1.937,5.392 2.014,5.558 2.092,5.722L2.092,5.723C2.17,5.888 2.249,6.053 2.329,6.216L2.329,6.217C2.409,6.38 2.491,6.543 2.574,6.705C2.657,6.867 2.741,7.028 2.827,7.188L2.827,7.189C2.913,7.35 2.999,7.508 3.087,7.667L3.088,7.668C3.175,7.826 3.264,7.983 3.354,8.141C3.444,8.298 3.536,8.453 3.628,8.608L3.628,8.609C3.721,8.765 3.814,8.919 3.909,9.072L3.91,9.073C4.005,9.226 4.101,9.378 4.197,9.529L4.198,9.53C4.296,9.682 4.395,9.833 4.493,9.982L4.494,9.982C4.594,10.133 4.694,10.281 4.796,10.429L4.797,10.43C4.898,10.577 5.001,10.725 5.104,10.87L5.105,10.871C5.209,11.017 5.314,11.161 5.42,11.306L5.422,11.306C5.527,11.45 5.635,11.593 5.743,11.734L5.744,11.735C5.853,11.878 5.962,12.018 6.072,12.158L6.073,12.159C6.184,12.3 6.295,12.438 6.407,12.577L6.408,12.577C6.521,12.715 6.635,12.852 6.75,12.988L6.75,12.989C6.865,13.125 6.98,13.26 7.098,13.393L7.099,13.394C7.216,13.528 7.333,13.661 7.452,13.793L7.453,13.794C7.572,13.926 7.691,14.057 7.812,14.185L7.813,14.186C7.935,14.316 8.056,14.444 8.179,14.572L8.18,14.573C8.303,14.701 8.427,14.826 8.552,14.952L8.553,14.953C8.678,15.078 8.803,15.202 8.93,15.325L8.932,15.327C9.058,15.449 9.186,15.571 9.313,15.691L9.315,15.693C9.443,15.813 9.573,15.933 9.703,16.052L9.705,16.053C9.835,16.172 9.967,16.289 10.1,16.404L10.101,16.406C10.233,16.522 10.366,16.637 10.5,16.751L10.502,16.753C10.636,16.866 10.771,16.979 10.907,17.09L10.908,17.091C11.044,17.202 11.182,17.313 11.319,17.422L11.32,17.423C11.458,17.532 11.597,17.64 11.736,17.746L11.737,17.748C11.877,17.854 12.018,17.96 12.159,18.063L12.16,18.065C12.302,18.17 12.443,18.272 12.587,18.374L12.589,18.375C12.73,18.477 12.874,18.577 13.02,18.677L13.021,18.678C13.165,18.776 13.311,18.875 13.457,18.972L13.459,18.973C13.604,19.068 13.752,19.165 13.899,19.259L13.901,19.261C14.049,19.354 14.197,19.447 14.347,19.538L14.349,19.54C14.498,19.631 14.648,19.722 14.799,19.81L14.801,19.811C14.952,19.899 15.104,19.987 15.256,20.074L15.258,20.075C15.41,20.161 15.563,20.246 15.717,20.33L15.72,20.331C15.873,20.415 16.027,20.496 16.183,20.577L16.186,20.578C16.34,20.659 16.497,20.738 16.653,20.816L16.656,20.817C16.812,20.895 16.97,20.973 17.128,21.048L17.131,21.05C17.289,21.125 17.447,21.198 17.607,21.27L17.609,21.272C17.769,21.345 17.929,21.416 18.09,21.485L18.093,21.486C18.254,21.556 18.415,21.624 18.577,21.691L18.579,21.692C18.741,21.759 18.904,21.824 19.068,21.889L19.071,21.89C19.234,21.954 19.398,22.016 19.562,22.077L19.566,22.078C19.73,22.139 19.896,22.198 20.062,22.257L20.065,22.258C20.231,22.316 20.397,22.372 20.564,22.428L20.567,22.429C20.734,22.483 20.903,22.537 21.071,22.589L21.074,22.591C21.242,22.643 21.412,22.693 21.58,22.742L21.584,22.743C21.754,22.793 21.924,22.84 22.094,22.886L22.098,22.887C22.268,22.933 22.438,22.977 22.61,23.02L22.613,23.021C22.786,23.064 22.958,23.105 23.131,23.145L23.135,23.145L23.133,23.145L23.135,23.146L23.131,23.146C12,25.715 3.096,34.711 0,46.289" style="fill:rgb(147,149,152);fill-rule:nonzero;"/>
        </g>
        <g transform="matrix(1,0,0,1,241.393,188.376)">
            <path d="M0,23.27C-3.098,11.692 -12.002,2.696 -23.132,0.127L-23.135,0.127L-23.135,0.126L-23.132,0.126C-22.96,0.085 -22.788,0.045 -22.615,0.002L-22.612,0L22.61,0L22.614,0.002C22.786,0.045 22.958,0.085 23.131,0.126L23.135,0.126L23.132,0.127L23.135,0.127L23.131,0.127C12,2.696 3.096,11.692 0,23.27" style="fill:rgb(188,190,192);fill-rule:nonzero;"/>
        </g>
        <g transform="matrix(1,0,0,1,0,-90.648)">
            <rect x="414.014" y="199.148" width="14.858" height="69.352" style="fill:white;"/>
        </g>
        <g transform="matrix(1,0,0,1,499.294,108.5)">
            <path d="M0,69.352L-35.3,24.145L-35.3,69.352L-50.156,69.352L-50.156,0L-35.3,0L-0.933,43.961L-0.933,0L13.938,0L13.938,69.352L0,69.352Z" style="fill:white;fill-rule:nonzero;"/>
        </g>
        <g transform="matrix(1,0,0,1,551.238,135.536)">
            <path d="M0,15.276L8.36,-7.945L16.624,15.276L0,15.276ZM15.179,-27.036L1.447,-27.036L-25.488,42.312L-9.696,42.312L-4.637,28.07L21.264,28.07L26.321,42.312L42.111,42.312L15.179,-27.036Z" style="fill:white;fill-rule:nonzero;"/>
        </g>
        <g transform="matrix(1,0,0,1,627.659,147.824)">
            <path d="M0,-9.295L-6.405,-9.295L-6.405,-25.499L0.199,-25.499C6.395,-25.499 9.799,-22.401 9.799,-17.552C9.799,-13.111 7.112,-9.295 0,-9.295M13.624,0.2C19.705,-3.306 24.658,-9.083 24.658,-17.857C24.658,-24.465 20.948,-39.323 1.649,-39.323L-21.261,-39.323L-21.261,30.028L-6.405,30.028L-6.405,4.022L-0.934,4.022L17.438,30.028L36.121,30.028L13.624,0.2Z" style="fill:white;fill-rule:nonzero;"/>
        </g>
        <g transform="matrix(1,0,0,1,372.178,121.195)">
            <path d="M0,43.961L-10.419,43.961L-10.419,27.858L-1.239,27.858C5.471,27.858 9.183,31.164 9.183,36.014C9.183,40.657 5.471,43.961 0,43.961M-10.419,-0.005L-3.923,-0.005C2.478,-0.005 5.366,3.304 5.366,7.323C5.366,12.385 1.853,15.17 -3.718,15.17L-10.419,15.17L-10.419,-0.005ZM9.805,19.814C14.97,17.646 19.708,12.587 19.708,5.671C19.708,-3.307 13,-12.695 -2.372,-12.695L-25.29,-12.695L-25.29,56.656L2.582,56.656C13.522,56.656 24.149,49.739 24.149,36.428C24.149,27.35 16.513,21.259 9.805,19.814" style="fill:white;fill-rule:nonzero;"/>
        </g>
        <g transform="matrix(1,0,0,1,425.044,233.007)">
            <path d="M0,0.001C0,5.827 1.812,10.59 5.436,14.283C8.987,17.979 13.605,19.826 19.291,19.826C24.976,19.826 29.577,17.979 33.095,14.283C36.611,10.59 38.369,5.827 38.369,0.001C38.369,-5.825 36.611,-10.586 33.095,-14.282C29.577,-17.976 24.976,-19.823 19.291,-19.823C13.605,-19.823 8.969,-17.976 5.382,-14.282C1.794,-10.586 0,-5.825 0,0.001M-15.668,0.001C-15.668,-10.301 -12.4,-18.792 -5.863,-25.473C0.675,-32.151 9.059,-35.492 19.291,-35.492C29.523,-35.492 37.872,-32.151 44.338,-25.473C50.804,-18.792 54.038,-10.301 54.038,0.001C54.038,10.305 50.804,18.796 44.338,25.474C37.872,32.153 29.523,35.493 19.291,35.493C9.059,35.493 0.675,32.153 -5.863,25.474C-12.4,18.796 -15.668,10.305 -15.668,0.001" style="fill:white;fill-rule:nonzero;"/>
        </g>
        <g transform="matrix(1,0,0,1,506.045,233.007)">
            <path d="M0,0.001C0,5.827 1.812,10.59 5.436,14.283C8.988,17.979 13.606,19.826 19.293,19.826C24.976,19.826 29.577,17.979 33.094,14.283C36.611,10.59 38.37,5.827 38.37,0.001C38.37,-5.825 36.611,-10.586 33.094,-14.282C29.577,-17.976 24.976,-19.823 19.293,-19.823C13.606,-19.823 8.97,-17.976 5.383,-14.282C1.794,-10.586 0,-5.825 0,0.001M-15.667,0.001C-15.667,-10.301 -12.399,-18.792 -5.861,-25.473C0.674,-32.151 9.061,-35.492 19.293,-35.492C29.524,-35.492 37.872,-32.151 44.339,-25.473C50.804,-18.792 54.037,-10.301 54.037,0.001C54.037,10.305 50.804,18.796 44.339,25.474C37.872,32.153 29.524,35.493 19.293,35.493C9.061,35.493 0.674,32.153 -5.861,25.474C-12.399,18.796 -15.667,10.305 -15.667,0.001" style="fill:white;fill-rule:nonzero;"/>
        </g>
        <g transform="matrix(1,0,0,1,566.69,267.647)">
            <path d="M0,-69.28L55.957,-69.28L55.957,-54.998L35.813,-54.998L35.813,0L20.146,0L20.146,-54.998L0,-54.998L0,-69.28Z" style="fill:white;fill-rule:nonzero;"/>
        </g>
        <g transform="matrix(1,0,0,1,639.591,258.48)">
            <path d="M0,-50.946C6.537,-57.625 14.922,-60.966 25.154,-60.966C37.374,-60.966 46.72,-56.309 53.185,-47.003L40.608,-37.623C39.044,-39.756 36.896,-41.567 34.16,-43.058C31.424,-44.55 28.422,-45.297 25.154,-45.297C19.469,-45.297 14.832,-43.449 11.245,-39.756C7.656,-36.059 5.863,-31.299 5.863,-25.472C5.863,-19.646 7.656,-14.883 11.245,-11.19C14.832,-7.495 19.469,-5.647 25.154,-5.647C28.353,-5.647 31.317,-6.448 34.053,-8.047C36.789,-9.645 38.974,-11.546 40.608,-13.749L53.185,-3.943C46.72,5.366 37.374,10.02 25.154,10.02C14.922,10.02 6.537,6.68 0,0C-6.537,-6.677 -9.805,-15.169 -9.805,-25.472C-9.805,-35.774 -6.537,-44.265 0,-50.946" style="fill:white;fill-rule:nonzero;"/>
        </g>
        <g transform="matrix(1,0,0,1,740.846,222.243)">
            <path d="M0,21.53L-8.102,1.066L-15.988,21.53L0,21.53ZM-41.888,45.405L-13.962,-23.875L-2.133,-23.875L25.9,45.405L9.272,45.405L5.541,35.812L-21.53,35.812L-25.261,45.405L-41.888,45.405Z" style="fill:white;fill-rule:nonzero;"/>
        </g>
        <g transform="matrix(1,0,0,1,792.11,267.647)">
            <path d="M0,-69.28L19.293,-30.696L38.689,-69.28L54.464,-69.28L54.464,0L38.796,0L38.796,-37.304L24.728,-7.78L13.962,-7.78L-0.106,-37.304L-0.106,0L-15.774,0L-15.774,-69.28L0,-69.28Z" style="fill:white;fill-rule:nonzero;"/>
        </g>
        <g transform="matrix(1,0,0,1,876.206,236.098)">
            <path d="M0,-6.182L14.068,-6.182C16.413,-6.182 18.437,-6.909 20.143,-8.366C21.848,-9.822 22.7,-11.83 22.7,-14.388C22.7,-16.947 21.885,-18.935 20.249,-20.357C18.613,-21.777 16.626,-22.488 14.282,-22.488L0,-22.488L0,-6.182ZM-15.668,31.549L-15.668,-37.731L16.839,-37.731C22.524,-37.731 27.533,-35.668 31.867,-31.548C36.201,-27.426 38.37,-21.706 38.37,-14.388C38.37,-7.069 36.201,-1.349 31.867,2.771C27.533,6.893 22.524,8.953 16.839,8.953L0,8.953L0,31.549L-15.668,31.549Z" style="fill:white;fill-rule:nonzero;"/>
        </g>
        <g transform="matrix(1,0,0,1,372.178,211.029)">
            <path d="M0,43.959L-10.419,43.959L-10.419,27.857L-1.239,27.857C5.471,27.857 9.183,31.163 9.183,36.013C9.183,40.656 5.471,43.959 0,43.959M-10.419,-0.007L-3.923,-0.007C2.478,-0.007 5.366,3.302 5.366,7.322C5.366,12.384 1.853,15.169 -3.718,15.169L-10.419,15.169L-10.419,-0.007ZM9.805,19.813C14.97,17.645 19.708,12.586 19.708,5.67C19.708,-3.308 13,-12.696 -2.372,-12.696L-25.29,-12.696L-25.29,56.655L2.582,56.655C13.522,56.655 24.149,49.737 24.149,36.427C24.149,27.349 16.513,21.257 9.805,19.813" style="fill:white;fill-rule:nonzero;"/>
        </g>
    </g>
</svg>
